<svg xmlns="http://www.w3.org/2000/svg" viewBox="0 0 81 724">
  <g fill="none" fill-rule="nonzero">
    <path fill="#FFF" d="M.5 681.73c0-15.4 10.01-27.61 26.4-27.61 14.08 0 22 11 23.98 22.77l7.04-4.62c3.08-1.98 4.84-4.18 4.84-9.68v-11.66h17.6v14.19c0 9.57-3.41 16.28-10.23 20.68l-16.94 10.89v7.92h27.17v18.7H.5zm16.5 2.53v20.35h22.22v-20.35c0-7.04-4.18-12.1-10.89-12.1-6.71 0-11.33 5.06-11.33 12.1zM80.36 610.01H54.73L.5 579.32V600l35.86 18.81L.5 637.62v21.67l54.23-30.58h25.63zM.5 542.8l79.86-31.13v21.78l-14.96 5.39v33.66l14.96 5.39v20.57L.5 567.44V542.8zm17.16 12.87l33.11 12.32v-24.64l-33.11 12.32zM80.36 489.45H29.32l51.04-38.5v-17.49H.5v18.04h50.49L.5 490v17.38h79.86z"/>
    <path fill="#F7B500" d="M80.36 357.67l-52.14-16.39 52.14-15.4v-23.43L.5 280.23v20.02l55.55 14.52L.5 331.27v17.05l55.55 16.94L.5 379.45v21.23l79.86-21.34zM80.36 215.22h-17.6v42.02H47.91v-39.71H33.06v39.71H18.21v-39.93H.5v58.63h79.86zM.5 168.47c0-14.52 9.13-23.65 21.45-23.65 5.61 0 11.55 2.31 14.74 6.71 3.74-6.27 10.23-10.67 18.92-10.67 14.63 0 24.75 10.01 24.75 27.28v44.44H.5zM44.94 171v22.77h20.24v-23.43c0-5.72-4.4-10.23-10.12-10.23-6.05 0-10.12 4.73-10.12 10.89zm-29.15-.44v23.1h18.7v-23.1c0-5.06-4.29-9.13-9.13-9.13-5.61 0-9.57 4.29-9.57 9.13z"/>
    <path fill="#FFF" d="M80.36 75.85h-17.6v42.02H47.91V78.16H33.06v39.71H18.21V77.94H.5v58.63h79.86zM.5 31.63c0-15.4 10.01-27.61 26.4-27.61 14.08 0 22 11 23.98 22.77l7.04-4.62c3.08-1.98 4.84-4.18 4.84-9.68V.83h17.6v14.19c0 9.57-3.41 16.28-10.23 20.68L53.19 46.59v7.92h27.17v18.7H.5zM17 34.16v20.35h22.22V34.16c0-7.04-4.18-12.1-10.89-12.1-6.71 0-11.33 5.06-11.33 12.1z"/>
  </g>
</svg>
