<svg xmlns="http://www.w3.org/2000/svg" viewBox="0 0 725 82">
  <g fill="none" fill-rule="nonzero">
    <path fill="#FFF" d="M42.77 1c15.4 0 27.61 10.01 27.61 26.4 0 14.08-11 22-22.77 23.98l4.62 7.04c1.98 3.08 4.18 4.84 9.68 4.84h11.66v17.6H59.38c-9.57 0-16.28-3.41-20.68-10.23L27.81 53.69h-7.92v27.17H1.19V1h41.58zm-2.53 16.5H19.89v22.22h20.35c7.04 0 12.1-4.18 12.1-10.89 0-6.71-5.06-11.33-12.1-11.33zm74.25 63.36V55.23L145.18 1H124.5l-18.81 35.86L86.88 1H65.21l30.58 54.23v25.63h18.7zM181.7 1l31.13 79.86h-21.78l-5.39-14.96H152l-5.39 14.96h-20.57L157.06 1h24.64zm-12.87 17.16l-12.32 33.11h24.64l-12.32-33.11zm66.22 62.7V29.82l38.5 51.04h17.49V1H273v50.49L234.5 1h-17.38v79.86h17.93z"/>
    <path fill="#F7B500" d="M366.83 80.86l16.39-52.14 15.4 52.14h23.43L444.27 1h-20.02l-14.52 55.55L393.23 1h-17.05l-16.94 55.55L345.05 1h-21.23l21.34 79.86h21.67zm142.45 0v-17.6h-42.02V48.41h39.71V33.56h-39.71V18.71h39.93V1h-58.63v79.86h60.72zM556.03 1c14.52 0 23.65 9.13 23.65 21.45 0 5.61-2.31 11.55-6.71 14.74 6.27 3.74 10.67 10.23 10.67 18.92 0 14.63-10.01 24.75-27.28 24.75h-44.44V1h44.11zm-2.53 44.44h-22.77v20.24h23.43c5.72 0 10.23-4.4 10.23-10.12 0-6.05-4.73-10.12-10.89-10.12zm.44-29.15h-23.1v18.7h23.1c5.06 0 9.13-4.29 9.13-9.13 0-5.61-4.29-9.57-9.13-9.57z"/>
    <path fill="#FFF" d="M648.65 80.86v-17.6h-42.02V48.41h39.71V33.56h-39.71V18.71h39.93V1h-58.63v79.86h60.72zM692.87 1c15.4 0 27.61 10.01 27.61 26.4 0 14.08-11 22-22.77 23.98l4.62 7.04c1.98 3.08 4.18 4.84 9.68 4.84h11.66v17.6h-14.19c-9.57 0-16.28-3.41-20.68-10.23l-10.89-16.94h-7.92v27.17h-18.7V1h41.58zm-2.53 16.5h-20.35v22.22h20.35c7.04 0 12.1-4.18 12.1-10.89 0-6.71-5.06-11.33-12.1-11.33z"/>
  </g>
</svg>
